<mxfile host="app.diagrams.net" modified="2023-11-27T11:58:23.257Z" agent="Mozilla/5.0 (Windows NT 10.0; Win64; x64) AppleWebKit/537.36 (KHTML, like Gecko) Chrome/119.0.0.0 Safari/537.36 Edg/119.0.0.0" etag="iFq2FqwfP3iBZp8goV1j" version="22.1.4" type="github">
  <diagram id="C5RBs43oDa-KdzZeNtuy" name="Page-1">
    <mxGraphModel dx="1269" dy="679" grid="1" gridSize="1" guides="1" tooltips="1" connect="1" arrows="1" fold="1" page="1" pageScale="1" pageWidth="827" pageHeight="1169" math="0" shadow="0">
      <root>
        <mxCell id="WIyWlLk6GJQsqaUBKTNV-0" />
        <mxCell id="WIyWlLk6GJQsqaUBKTNV-1" parent="WIyWlLk6GJQsqaUBKTNV-0" />
        <mxCell id="5D_KExEal0bmPr6Oq1MI-0" value="" style="rounded=0;html=1;jettySize=auto;orthogonalLoop=1;fontSize=11;endArrow=classicThin;endFill=1;endSize=8;strokeWidth=1;shadow=0;labelBackgroundColor=none;edgeStyle=orthogonalEdgeStyle;movable=1;resizable=1;rotatable=1;deletable=1;editable=1;locked=0;connectable=1;entryX=0.5;entryY=0;entryDx=0;entryDy=0;" parent="WIyWlLk6GJQsqaUBKTNV-1" source="5D_KExEal0bmPr6Oq1MI-1" edge="1" target="5D_KExEal0bmPr6Oq1MI-44">
          <mxGeometry relative="1" as="geometry">
            <mxPoint x="72.50999999999999" y="127" as="targetPoint" />
          </mxGeometry>
        </mxCell>
        <mxCell id="5D_KExEal0bmPr6Oq1MI-1" value="开始" style="rounded=1;whiteSpace=wrap;html=1;fontSize=12;glass=0;strokeWidth=1;shadow=0;fillColor=#eeeeee;strokeColor=#36393d;" parent="WIyWlLk6GJQsqaUBKTNV-1" vertex="1">
          <mxGeometry x="12.509999999999991" y="53" width="120" height="40" as="geometry" />
        </mxCell>
        <mxCell id="5D_KExEal0bmPr6Oq1MI-17" value="" style="edgeStyle=orthogonalEdgeStyle;rounded=0;orthogonalLoop=1;jettySize=auto;html=1;entryX=0.5;entryY=0;entryDx=0;entryDy=0;" parent="WIyWlLk6GJQsqaUBKTNV-1" source="5D_KExEal0bmPr6Oq1MI-18" target="5D_KExEal0bmPr6Oq1MI-29" edge="1">
          <mxGeometry relative="1" as="geometry">
            <mxPoint x="72" y="512" as="targetPoint" />
          </mxGeometry>
        </mxCell>
        <mxCell id="5D_KExEal0bmPr6Oq1MI-18" value="计算大腿舵机&lt;br&gt;实际旋转角度" style="rounded=0;whiteSpace=wrap;html=1;fillColor=#dae8fc;strokeColor=#6c8ebf;" parent="WIyWlLk6GJQsqaUBKTNV-1" vertex="1">
          <mxGeometry x="10" y="421" width="125" height="40" as="geometry" />
        </mxCell>
        <mxCell id="5D_KExEal0bmPr6Oq1MI-50" value="" style="edgeStyle=orthogonalEdgeStyle;rounded=0;orthogonalLoop=1;jettySize=auto;html=1;" parent="WIyWlLk6GJQsqaUBKTNV-1" source="5D_KExEal0bmPr6Oq1MI-22" target="5D_KExEal0bmPr6Oq1MI-18" edge="1">
          <mxGeometry relative="1" as="geometry" />
        </mxCell>
        <mxCell id="5D_KExEal0bmPr6Oq1MI-58" value="" style="edgeStyle=orthogonalEdgeStyle;rounded=0;orthogonalLoop=1;jettySize=auto;html=1;" parent="WIyWlLk6GJQsqaUBKTNV-1" source="5D_KExEal0bmPr6Oq1MI-22" edge="1">
          <mxGeometry relative="1" as="geometry">
            <mxPoint x="182" y="336" as="targetPoint" />
          </mxGeometry>
        </mxCell>
        <mxCell id="5D_KExEal0bmPr6Oq1MI-22" value="足端x坐标&lt;br&gt;大于0？" style="rhombus;whiteSpace=wrap;html=1;shadow=0;fontFamily=Helvetica;fontSize=12;align=center;strokeWidth=1;spacing=6;spacingTop=-4;fillColor=#d5e8d4;strokeColor=#82b366;" parent="WIyWlLk6GJQsqaUBKTNV-1" vertex="1">
          <mxGeometry x="22.889999999999986" y="301" width="100.25" height="70" as="geometry" />
        </mxCell>
        <mxCell id="5D_KExEal0bmPr6Oq1MI-70" value="" style="edgeStyle=orthogonalEdgeStyle;rounded=0;orthogonalLoop=1;jettySize=auto;html=1;" parent="WIyWlLk6GJQsqaUBKTNV-1" source="5D_KExEal0bmPr6Oq1MI-29" target="5D_KExEal0bmPr6Oq1MI-68" edge="1">
          <mxGeometry relative="1" as="geometry" />
        </mxCell>
        <mxCell id="5D_KExEal0bmPr6Oq1MI-29" value="小腿舵机实际角度&lt;br&gt;转为角度制" style="rounded=0;whiteSpace=wrap;html=1;fillColor=#dae8fc;strokeColor=#6c8ebf;" parent="WIyWlLk6GJQsqaUBKTNV-1" vertex="1">
          <mxGeometry x="10" y="506" width="125" height="40" as="geometry" />
        </mxCell>
        <mxCell id="5D_KExEal0bmPr6Oq1MI-30" value="结束" style="rounded=1;whiteSpace=wrap;html=1;fontSize=12;glass=0;strokeWidth=1;shadow=0;fillColor=#eeeeee;strokeColor=#36393d;" parent="WIyWlLk6GJQsqaUBKTNV-1" vertex="1">
          <mxGeometry x="13" y="761" width="120" height="40" as="geometry" />
        </mxCell>
        <mxCell id="5D_KExEal0bmPr6Oq1MI-46" value="" style="edgeStyle=orthogonalEdgeStyle;rounded=0;orthogonalLoop=1;jettySize=auto;html=1;" parent="WIyWlLk6GJQsqaUBKTNV-1" source="5D_KExEal0bmPr6Oq1MI-44" target="5D_KExEal0bmPr6Oq1MI-45" edge="1">
          <mxGeometry relative="1" as="geometry" />
        </mxCell>
        <mxCell id="5D_KExEal0bmPr6Oq1MI-44" value="计算小腿角度" style="rounded=0;whiteSpace=wrap;html=1;fillColor=#dae8fc;strokeColor=#6c8ebf;" parent="WIyWlLk6GJQsqaUBKTNV-1" vertex="1">
          <mxGeometry x="10" y="135" width="125" height="40" as="geometry" />
        </mxCell>
        <mxCell id="5D_KExEal0bmPr6Oq1MI-49" value="" style="edgeStyle=orthogonalEdgeStyle;rounded=0;orthogonalLoop=1;jettySize=auto;html=1;" parent="WIyWlLk6GJQsqaUBKTNV-1" source="5D_KExEal0bmPr6Oq1MI-45" target="5D_KExEal0bmPr6Oq1MI-22" edge="1">
          <mxGeometry relative="1" as="geometry" />
        </mxCell>
        <mxCell id="5D_KExEal0bmPr6Oq1MI-45" value="计算大腿角度" style="rounded=0;whiteSpace=wrap;html=1;fillColor=#dae8fc;strokeColor=#6c8ebf;" parent="WIyWlLk6GJQsqaUBKTNV-1" vertex="1">
          <mxGeometry x="10.01" y="217" width="125" height="40" as="geometry" />
        </mxCell>
        <mxCell id="5D_KExEal0bmPr6Oq1MI-53" value="&lt;font style=&quot;font-size: 10px;&quot;&gt;Y&lt;/font&gt;" style="text;html=1;strokeColor=none;fillColor=default;align=center;verticalAlign=middle;whiteSpace=wrap;rounded=0;" parent="WIyWlLk6GJQsqaUBKTNV-1" vertex="1">
          <mxGeometry x="63" y="385" width="20" height="18" as="geometry" />
        </mxCell>
        <mxCell id="5D_KExEal0bmPr6Oq1MI-59" value="&lt;font style=&quot;font-size: 10px;&quot;&gt;N&lt;/font&gt;" style="text;html=1;strokeColor=none;fillColor=default;align=center;verticalAlign=middle;whiteSpace=wrap;rounded=0;" parent="WIyWlLk6GJQsqaUBKTNV-1" vertex="1">
          <mxGeometry x="140" y="326" width="20" height="18" as="geometry" />
        </mxCell>
        <mxCell id="5D_KExEal0bmPr6Oq1MI-74" value="" style="edgeStyle=orthogonalEdgeStyle;rounded=0;orthogonalLoop=1;jettySize=auto;html=1;endArrow=none;endFill=0;" parent="WIyWlLk6GJQsqaUBKTNV-1" source="5D_KExEal0bmPr6Oq1MI-60" edge="1">
          <mxGeometry relative="1" as="geometry">
            <mxPoint x="74" y="484" as="targetPoint" />
            <Array as="points">
              <mxPoint x="232" y="484" />
              <mxPoint x="112" y="484" />
            </Array>
          </mxGeometry>
        </mxCell>
        <mxCell id="5D_KExEal0bmPr6Oq1MI-60" value="计算大腿舵机&lt;br&gt;实际旋转角度" style="rounded=0;whiteSpace=wrap;html=1;fillColor=#dae8fc;strokeColor=#6c8ebf;" parent="WIyWlLk6GJQsqaUBKTNV-1" vertex="1">
          <mxGeometry x="169.63" y="421" width="125" height="40" as="geometry" />
        </mxCell>
        <mxCell id="5D_KExEal0bmPr6Oq1MI-62" value="" style="edgeStyle=orthogonalEdgeStyle;rounded=0;orthogonalLoop=1;jettySize=auto;html=1;" parent="WIyWlLk6GJQsqaUBKTNV-1" source="5D_KExEal0bmPr6Oq1MI-61" target="5D_KExEal0bmPr6Oq1MI-60" edge="1">
          <mxGeometry relative="1" as="geometry" />
        </mxCell>
        <mxCell id="5D_KExEal0bmPr6Oq1MI-66" value="" style="edgeStyle=orthogonalEdgeStyle;rounded=0;orthogonalLoop=1;jettySize=auto;html=1;entryX=0.5;entryY=0;entryDx=0;entryDy=0;" parent="WIyWlLk6GJQsqaUBKTNV-1" source="5D_KExEal0bmPr6Oq1MI-61" target="5D_KExEal0bmPr6Oq1MI-64" edge="1">
          <mxGeometry relative="1" as="geometry">
            <mxPoint x="412.375" y="336" as="targetPoint" />
          </mxGeometry>
        </mxCell>
        <mxCell id="5D_KExEal0bmPr6Oq1MI-61" value="足端x坐标&lt;br&gt;小于0？" style="rhombus;whiteSpace=wrap;html=1;shadow=0;fontFamily=Helvetica;fontSize=12;align=center;strokeWidth=1;spacing=6;spacingTop=-4;fillColor=#d5e8d4;strokeColor=#82b366;" parent="WIyWlLk6GJQsqaUBKTNV-1" vertex="1">
          <mxGeometry x="182" y="301" width="100.25" height="70" as="geometry" />
        </mxCell>
        <mxCell id="5D_KExEal0bmPr6Oq1MI-63" value="&lt;font style=&quot;font-size: 10px;&quot;&gt;Y&lt;/font&gt;" style="text;html=1;strokeColor=none;fillColor=default;align=center;verticalAlign=middle;whiteSpace=wrap;rounded=0;" parent="WIyWlLk6GJQsqaUBKTNV-1" vertex="1">
          <mxGeometry x="223" y="385" width="20" height="18" as="geometry" />
        </mxCell>
        <mxCell id="5D_KExEal0bmPr6Oq1MI-76" value="" style="edgeStyle=orthogonalEdgeStyle;rounded=0;orthogonalLoop=1;jettySize=auto;html=1;endArrow=none;endFill=0;" parent="WIyWlLk6GJQsqaUBKTNV-1" source="5D_KExEal0bmPr6Oq1MI-64" edge="1">
          <mxGeometry relative="1" as="geometry">
            <mxPoint x="233" y="484" as="targetPoint" />
            <Array as="points">
              <mxPoint x="402" y="484" />
            </Array>
          </mxGeometry>
        </mxCell>
        <mxCell id="5D_KExEal0bmPr6Oq1MI-64" value="计算大腿舵机&lt;br&gt;实际旋转角度" style="rounded=0;whiteSpace=wrap;html=1;fillColor=#dae8fc;strokeColor=#6c8ebf;" parent="WIyWlLk6GJQsqaUBKTNV-1" vertex="1">
          <mxGeometry x="339" y="421" width="125" height="40" as="geometry" />
        </mxCell>
        <mxCell id="5D_KExEal0bmPr6Oq1MI-67" value="&lt;font style=&quot;font-size: 10px;&quot;&gt;N&lt;/font&gt;" style="text;html=1;strokeColor=none;fillColor=default;align=center;verticalAlign=middle;whiteSpace=wrap;rounded=0;" parent="WIyWlLk6GJQsqaUBKTNV-1" vertex="1">
          <mxGeometry x="329" y="328" width="20" height="18" as="geometry" />
        </mxCell>
        <mxCell id="5D_KExEal0bmPr6Oq1MI-71" value="" style="edgeStyle=orthogonalEdgeStyle;rounded=0;orthogonalLoop=1;jettySize=auto;html=1;" parent="WIyWlLk6GJQsqaUBKTNV-1" source="5D_KExEal0bmPr6Oq1MI-68" target="5D_KExEal0bmPr6Oq1MI-69" edge="1">
          <mxGeometry relative="1" as="geometry" />
        </mxCell>
        <mxCell id="5D_KExEal0bmPr6Oq1MI-68" value="大腿舵机实际角度&lt;br&gt;转为角度制" style="rounded=0;whiteSpace=wrap;html=1;fillColor=#dae8fc;strokeColor=#6c8ebf;" parent="WIyWlLk6GJQsqaUBKTNV-1" vertex="1">
          <mxGeometry x="10" y="589" width="125" height="40" as="geometry" />
        </mxCell>
        <mxCell id="5D_KExEal0bmPr6Oq1MI-72" value="" style="edgeStyle=orthogonalEdgeStyle;rounded=0;orthogonalLoop=1;jettySize=auto;html=1;" parent="WIyWlLk6GJQsqaUBKTNV-1" source="5D_KExEal0bmPr6Oq1MI-69" target="5D_KExEal0bmPr6Oq1MI-30" edge="1">
          <mxGeometry relative="1" as="geometry" />
        </mxCell>
        <mxCell id="5D_KExEal0bmPr6Oq1MI-69" value="返回大、小腿&lt;br&gt;舵机角度" style="rounded=0;whiteSpace=wrap;html=1;fillColor=#dae8fc;strokeColor=#6c8ebf;" parent="WIyWlLk6GJQsqaUBKTNV-1" vertex="1">
          <mxGeometry x="10" y="675" width="125" height="40" as="geometry" />
        </mxCell>
      </root>
    </mxGraphModel>
  </diagram>
</mxfile>
